<?xml version="1.0" encoding="utf-8"?>
<!-- Generator: Adobe Illustrator 16.0.0, SVG Export Plug-In . SVG Version: 6.00 Build 0)  -->
<!DOCTYPE svg PUBLIC "-//W3C//DTD SVG 1.1//EN" "http://www.w3.org/Graphics/SVG/1.1/DTD/svg11.dtd">
<svg version="1.1" id="Layer_1" xmlns="http://www.w3.org/2000/svg" xmlns:xlink="http://www.w3.org/1999/xlink" x="0px" y="0px"
	 width="512px" height="200px" viewBox="0 0 512 200" enable-background="new 0 0 512 200" xml:space="preserve">
	 
	 <style type="text/css">

  .svgEditorBackground{
  fill:none;
    stroke:#374b56;
			stroke-width:4;
    stroke-miterlimit:5;
  }

  <defs>

      <style>

          .svgEditorBackground{

            stroke-dasharray : 1200;
            stroke-dashoffset : 0;
            animation : dash 2s linear infinite;
			animation-direction: alternate-reverse;

          }

          @-webkit-keyframes dash {
             from{
             stroke-dashoffset : 1200;
             }
             to {
             stroke-dashoffset : 0;
             }
          }


      </style>


  </defs>
</style>
	 
	 
	 
<path class="svgEditorBackground" fill="none" stroke="#000000" stroke-miterlimit="10" d="M14.825,50.035c0,0,11.842,139.912,35.965,79.386
	s26.316-125,67.982-34.649s48.246,54.386,56.579-2.193s28.07-74.123,54.386,12.28s56.58,51.707,67.983-7.48
	c11.403-59.187,4.386-77.607,28.947-4.362s21.491,24.207,29.386,7.937c7.895-16.271,9.648-38.639,22.807-12.323
	s9.649,30.193,28.07,11.369c18.421-18.825,23.246-38.123,38.597-10.053s13.157,26.754,26.315,3.07
	c13.158-23.684,14.474-16.667,20.176-4.386"/>
</svg>
